<?xml version="1.0" standalone="no"?>
<!DOCTYPE svg PUBLIC "-//W3C//DTD SVG 20010904//EN"
 "http://www.w3.org/TR/2001/REC-SVG-20010904/DTD/svg10.dtd">
<svg version="1.0" xmlns="http://www.w3.org/2000/svg"
 width="300.000000pt" height="144.000000pt" viewBox="0 0 300.000000 144.000000"
 preserveAspectRatio="xMidYMid meet">
<metadata>
Created by potrace 1.10, written by Peter Selinger 2001-2011
</metadata>
<g transform="translate(0.000000,144.000000) scale(0.050000,-0.050000)"
fill="#ffffff" stroke="none">
<path d="M40 1850 l0 -950 230 0 230 0 0 -180 0 -180 2470 0 2470 0 0 920 0
920 -200 0 -200 0 0 210 0 210 -2500 0 -2500 0 0 -950z m4980 0 l0 -910 -2480
0 -2480 0 0 910 0 910 2480 0 2480 0 0 -910z"/>
<path d="M1544 1975 l6 -265 190 0 c163 0 190 5 196 34 6 30 -15 35 -150 40
l-156 6 -6 75 -6 75 121 0 c108 0 121 4 121 40 0 36 -13 40 -120 40 l-120 0 0
69 0 69 155 6 c129 5 156 12 161 41 6 31 -13 35 -195 35 l-202 0 5 -265z"/>
<path d="M2460 2010 c0 -217 2 -230 40 -230 27 0 40 -13 40 -40 0 -33 13 -40
80 -40 67 0 80 7 80 40 0 33 -13 40 -81 40 l-81 0 6 115 6 115 76 6 c106 9 97
71 -11 80 -71 6 -75 10 -75 75 0 56 -8 69 -40 69 -38 0 -40 -13 -40 -230z"/>
<path d="M2086 2060 c-6 -23 -27 -40 -49 -40 -56 0 -48 -306 8 -316 31 -6 35
12 35 156 l0 162 115 -6 115 -6 6 -156 c5 -135 10 -156 40 -150 55 10 61 295
7 309 -22 6 -44 28 -49 49 -15 58 -213 56 -228 -2z"/>
<path d="M2846 2060 c-6 -22 -23 -40 -38 -40 -21 0 -28 -31 -28 -120 0 -89 7
-120 28 -120 15 0 32 -18 38 -40 9 -34 27 -40 122 -40 99 0 112 5 112 40 0 35
-13 40 -110 40 -97 0 -110 5 -110 40 0 35 13 40 110 40 97 0 110 5 110 40 0
27 13 40 40 40 27 0 40 13 40 40 0 26 -13 40 -38 40 -21 0 -42 18 -48 40 -9
34 -27 40 -114 40 -87 0 -105 -6 -114 -40z m234 -80 c0 -35 -13 -40 -110 -40
-97 0 -110 5 -110 40 0 35 13 40 110 40 97 0 110 -5 110 -40z"/>
<path d="M3240 1899 c0 -182 4 -201 35 -195 28 5 36 31 41 121 4 80 14 115 33
115 14 0 31 18 37 40 8 31 27 40 82 40 59 0 72 7 72 40 0 33 -13 40 -72 40
-55 0 -74 -9 -82 -40 -6 -22 -22 -40 -36 -40 -14 0 -30 18 -36 40 -6 22 -25
40 -42 40 -27 0 -32 -30 -32 -201z"/>
<path d="M5475 1205 l-5 -695 -2245 -5 -2245 -5 0 -220 0 -220 2470 0 2470 0
0 920 0 920 -220 0 -219 0 -6 -695z"/>
</g>
</svg>
