<?xml version="1.0" standalone="no"?>
<!DOCTYPE svg PUBLIC "-//W3C//DTD SVG 20010904//EN"
 "http://www.w3.org/TR/2001/REC-SVG-20010904/DTD/svg10.dtd">
<svg version="1.0" xmlns="http://www.w3.org/2000/svg"
 width="300.000000pt" height="354.000000pt" viewBox="0 0 300.000000 354.000000"
 preserveAspectRatio="xMidYMid meet">
<metadata>
Created by potrace 1.10, written by Peter Selinger 2001-2011
</metadata>
<g transform="translate(0.000000,354.000000) scale(0.050000,-0.050000)"
fill="#ffffff" stroke="none">
<path d="M648 6958 c-36 -40 -38 -89 -44 -927 l-5 -884 -111 -46 c-552 -229
-543 -1078 14 -1275 l97 -35 6 -1813 c6 -2047 -7 -1898 157 -1898 170 0 158
-139 158 1908 l0 1803 103 36 c556 198 562 1045 8 1274 l-111 46 0 874 c0 854
-1 875 -41 926 -54 69 -174 74 -231 11z"/>
<path d="M2888 6958 c-37 -41 -38 -108 -43 -2088 l-6 -2046 -53 -13 c-589
-148 -632 -1054 -62 -1290 l114 -48 6 -654 c7 -741 6 -739 156 -739 150 0 149
-2 156 739 l6 654 114 48 c571 236 527 1142 -62 1290 l-53 13 -6 2046 c-6
2306 7 2130 -155 2130 -50 0 -86 -14 -112 -42z"/>
<path d="M5121 6947 c-39 -50 -41 -77 -41 -550 0 -434 -4 -497 -31 -497 -56 0
-198 -83 -286 -167 -382 -366 -229 -999 282 -1161 33 -10 35 -132 35 -2199 0
-2484 -13 -2293 158 -2293 165 0 151 -197 162 2284 l10 2200 72 24 c357 123
549 576 390 923 -84 184 -316 389 -440 389 -26 0 -31 75 -36 508 -6 467 -9
511 -44 550 -57 63 -177 58 -231 -11z"/>
</g>
</svg>
