<?xml version="1.0" standalone="no"?>
<!DOCTYPE svg PUBLIC "-//W3C//DTD SVG 20010904//EN"
 "http://www.w3.org/TR/2001/REC-SVG-20010904/DTD/svg10.dtd">
<svg version="1.0" xmlns="http://www.w3.org/2000/svg"
 width="300.000000pt" height="295.000000pt" viewBox="0 0 300.000000 295.000000"
 preserveAspectRatio="xMidYMid meet">
<metadata>
Created by potrace 1.10, written by Peter Selinger 2001-2011
</metadata>
<g transform="translate(0.000000,295.000000) scale(0.100000,-0.100000)"
fill="#ffffff" stroke="none">
<path d="M1343 2922 l-1323 -2 0 -1325 0 -1325 75 0 74 0 3 -63 3 -62 73 -3
72 -3 0 -54 0 -55 1330 0 1330 0 0 1325 0 1325 -75 0 -75 0 0 60 0 60 -75 0
-75 0 0 59 c0 33 -3 61 -7 63 -5 2 -603 2 -1330 0z m1317 -127 l0 -115 -1310
0 -1310 0 0 115 0 115 1310 0 1310 0 0 -115z m150 -1325 l0 -1310 -1310 0
-1310 0 0 55 0 55 1245 0 1245 0 0 1255 0 1255 65 0 65 0 0 -1310z m-150 10
l0 -1190 -1310 0 -1310 0 0 1190 0 1190 1310 0 1310 0 0 -1190z m300 -130 l0
-1310 -1310 0 -1310 0 0 50 0 50 1245 0 1245 0 0 1260 0 1260 65 0 65 0 0
-1310z"/>
<path d="M160 2848 c-31 -11 -40 -25 -40 -65 0 -58 68 -83 108 -40 26 27 28
54 7 84 -18 26 -43 33 -75 21z m54 -24 c19 -18 21 -55 4 -72 -27 -27 -88 -3
-88 34 0 18 36 54 54 54 8 0 22 -7 30 -16z"/>
<path d="M330 2852 c-52 -16 -66 -74 -27 -110 29 -27 61 -28 87 -2 46 46 0
131 -60 112z m50 -32 c24 -24 25 -38 3 -62 -33 -37 -83 -17 -83 34 0 45 46 62
80 28z"/>
<path d="M498 2848 c-49 -17 -55 -93 -9 -117 31 -17 56 -13 79 12 26 27 28 54
7 84 -18 26 -42 32 -77 21z m56 -24 c19 -18 21 -55 4 -72 -27 -27 -88 -3 -88
34 0 18 36 54 54 54 8 0 22 -7 30 -16z"/>
</g>
</svg>
